<svg id="Layer_1" data-name="Layer 1" xmlns="http://www.w3.org/2000/svg" viewBox="0 0 65.83 65.5"><defs><style>.cls-1{fill:#fff}</style></defs><title>logomark-basics</title><path class="cls-1" d="M35.88 28.93a10.11 10.11 0 0 0-3.44.63A22.7 22.7 0 0 0 28 31.91v9.88a11 11 0 0 0 .33 3.27A5.15 5.15 0 0 0 29.76 47a7.84 7.84 0 0 0 2.44 1.56 7.65 7.65 0 0 0 7-.63 8.1 8.1 0 0 0 3-3.57 13.58 13.58 0 0 0 1.08-5.67A11.41 11.41 0 0 0 41 31.25a6.13 6.13 0 0 0-5.12-2.32zm26.26 6.89l3.69-3.08-3.69-3.07 3-3.77-4.25-2.24L63 19.35 58.33 18l1.18-4.65-4.79-.35.19-4.8-4.73.8-.85-4.76-4.51 1.66-1.74-4.47L39 4l-2.67-4-3.42 3.35L29.46 0l-2.67 4-4.06-2.57L21 5.89l-4.5-1.66L15.62 9l-4.75-.68.19 4.8-4.79.32L7.44 18l-4.62 1.31 2.12 4.31-4.25 2.24 3 3.77L0 32.7l3.69 3.08-3 3.77 4.25 2.24-2.12 4.3 4.62 1.31-1.17 4.66 4.79.31-.19 4.8 4.75-.69.82 4.73 4.5-1.66L22.72 64l4.07-2.56 2.67 4 3.45-3.35 3.42 3.4 2.67-4 4.06 2.56 1.78-4.46 4.49 1.67.81-4.73 4.75.69-.19-4.8 4.79-.31-1.16-4.67 4.67-1.3-2.12-4.3 4.25-2.24zM44.6 48.38A10.67 10.67 0 0 1 36.33 52 11.23 11.23 0 0 1 31 50.74a11.8 11.8 0 0 1-3.39-2.85l-1.41 3.49h-2.4V18h-4.47v-2.13a14.91 14.91 0 0 0 3.28-.62 20.08 20.08 0 0 0 3.54-1.54H28v15.66a17.48 17.48 0 0 1 4.64-2.54 14.47 14.47 0 0 1 4.9-.83 9.76 9.76 0 0 1 5.31 1.54 10.58 10.58 0 0 1 3.83 4.35 14.72 14.72 0 0 1 1.4 6.63 14.14 14.14 0 0 1-3.48 9.86z"/></svg>