<?xml version="1.0" encoding="utf-8"?>
<!-- Generator: Adobe Illustrator 19.1.0, SVG Export Plug-In . SVG Version: 6.00 Build 0)  -->
<svg version="1.1" id="Layer_1" xmlns="http://www.w3.org/2000/svg" xmlns:xlink="http://www.w3.org/1999/xlink" x="0px" y="0px"
	 viewBox="0 0 226.2 19" style="enable-background:new 0 0 226.2 19;" xml:space="preserve">
<style type="text/css">
	.st0{fill:#FFFFFF;}
</style>
<g>
	<path class="st0" d="M4.1,15.9h2.3V3.1H3V5H0V0.4h15.9V5h-3V3.1H9.5v12.7h2.3v2.8H4.1L4.1,15.9L4.1,15.9z"/>
	<path class="st0" d="M19.7,15.9h2.1V3.1h-2.1V0.4h7.1C31,0.4,34,2.2,34,5.9c0,2.3-1.4,4.2-3.5,5l2.8,5h2.1v2.8h-4.3l-3.7-6.9
		c-0.3,0-0.7,0-1.1,0c-0.6,0-1.1,0-1.5,0v4.2H27v2.8h-7.3V15.9z M30.7,6c0-2-1.6-2.9-4.2-2.9h-1.7v5.9c0.3,0,0.8,0,1.7,0
		C29.1,9.1,30.7,7.9,30.7,6z"/>
	<path class="st0" d="M39.8,11.9V3.1h-2V0.4h7.3v2.8h-2.2v8.7c0,2.8,1.4,4.3,3.7,4.3s3.8-1.4,3.8-4.2V3.2h-2.2V0.4h7.3v2.8h-2V12
		c0,4.8-2.8,7.1-6.8,7.1C42.6,19,39.8,16.7,39.8,11.9z"/>
	<path class="st0" d="M62.5,15.9h2.3V3.1h-3.3V5h-3V0.4h15.9V5h-3V3.1h-3.3v12.7h2.3v2.8h-7.8v-2.8H62.5z"/>
	<path class="st0" d="M78,15.9h2.1V3.1H78V0.4h7.5v2.8h-2.3V8h8.5V3.1h-2.3V0.4h7.5v2.8h-2.1v12.7h2.1v2.8h-7.5v-2.8h2.3v-5.1h-8.5
		v5.1h2.3v2.8H78V15.9L78,15.9z"/>
	<path class="st0" d="M102.4,17.3h2.4V1.7h-2.4V0.3h12.8v3.1h-1.5V1.8h-7.3v7.2h6v1.4h-6.2v7h2.7v1.4h-6.6L102.4,17.3L102.4,17.3
		L102.4,17.3z"/>
	<path class="st0" d="M118.5,9.5c0-5.3,4-9.5,9.3-9.5c5.2,0,9.2,4.2,9.2,9.5s-4,9.5-9.3,9.5C122.5,19,118.5,14.8,118.5,9.5z
		 M135.3,9.5c0-4.5-3.1-8.1-7.6-8.1c-4.5,0-7.6,3.6-7.6,8c0,4.5,3.1,8.1,7.6,8.1C132.2,17.5,135.3,14,135.3,9.5z"/>
	<path class="st0" d="M140.7,17.3h2.4V1.7h-2.4V0.3h6.8c4,0,6.4,2.1,6.4,5.2c0,2.5-1.7,4.3-4.2,5l4.3,6.7h2.2v1.4h-3.1l-4.9-7.8
		c-0.3,0-0.7,0-1,0c-0.8,0-1.7,0-2.4,0v6.4h2.4v1.4h-6.5V17.3L140.7,17.3L140.7,17.3z M152.4,5.6c0-2.4-2-3.8-5-3.8h-2.8v7.8
		c0.7,0,1.6,0,2.4,0C150.2,9.6,152.4,8.2,152.4,5.6z"/>
	<path class="st0" d="M160.8,16.5h2.2V2.6h-2.2V0.4h7.2v2.2h-2.4v13.8h5.8v-2.7h2.4v5h-13L160.8,16.5L160.8,16.5z"/>
	<path class="st0" d="M178.2,16.5h2.4V2.6h-2.4V0.4h7.3v2.2h-2.3v13.8h2.3v2.2h-7.3V16.5z"/>
	<path class="st0" d="M190,16.5h2.2V2.6H190V0.4h13.3v3.7h-2.4V2.6h-6.2v6h5.7v2.2h-5.7v5.7h2.4v2.2H190V16.5z"/>
	<path class="st0" d="M206.4,16.5h2.2V2.6h-2.2V0.4h13.5v3.7h-2.4V2.6h-6.3v5.7h5.8v2.2h-5.8v6h6.3v-1.5h2.4v3.7h-13.4V16.5z"/>
	<g>
		<path class="st0" d="M221.9,2.6L221.9,2.6c0-1.1,0.9-2.2,2.2-2.2c1.1,0,2.1,0.9,2.1,2.1l0,0c0,1.1-0.9,2.2-2.2,2.2
			C222.8,4.7,221.9,3.7,221.9,2.6z M225.9,2.6L225.9,2.6c0-1-0.8-2-2-2c-1,0-2,0.9-2,2l0,0c0,1,0.8,2,2,2
			C225.1,4.4,225.9,3.6,225.9,2.6z M223.1,1.3h1c0.3,0,0.6,0.1,0.7,0.2c0.1,0.1,0.2,0.2,0.2,0.5l0,0c0,0.3-0.2,0.6-0.5,0.7l0.6,0.8
			h-0.5l-0.6-0.8l0,0h-0.5v0.8h-0.5V1.3H223.1L223.1,1.3L223.1,1.3z M224.2,2.4c0.2,0,0.5-0.1,0.5-0.3l0,0c0-0.2-0.1-0.3-0.5-0.3
			h-0.6v0.7C223.6,2.4,224.2,2.4,224.2,2.4z"/>
	</g>
</g>
</svg>
